<svg aria-roledescription="flowchart-v2" role="graphics-document document" viewBox="-8 -8 962.17578125 2424" style="max-width: 962.17578125px;" xmlns="http://www.w3.org/2000/svg" width="100%" id="mermaid-svg-1771545438045-vy5ambzcs"><style>#mermaid-svg-1771545438045-vy5ambzcs{font-family:"trebuchet ms",verdana,arial,sans-serif;font-size:16px;fill:rgba(228, 228, 228, 0.92);}#mermaid-svg-1771545438045-vy5ambzcs .error-icon{fill:#141414;}#mermaid-svg-1771545438045-vy5ambzcs .error-text{fill:#e34671;stroke:#e34671;}#mermaid-svg-1771545438045-vy5ambzcs .edge-thickness-normal{stroke-width:2px;}#mermaid-svg-1771545438045-vy5ambzcs .edge-thickness-thick{stroke-width:3.5px;}#mermaid-svg-1771545438045-vy5ambzcs .edge-pattern-solid{stroke-dasharray:0;}#mermaid-svg-1771545438045-vy5ambzcs .edge-pattern-dashed{stroke-dasharray:3;}#mermaid-svg-1771545438045-vy5ambzcs .edge-pattern-dotted{stroke-dasharray:2;}#mermaid-svg-1771545438045-vy5ambzcs .marker{fill:rgba(228, 228, 228, 0.92);stroke:rgba(228, 228, 228, 0.92);}#mermaid-svg-1771545438045-vy5ambzcs .marker.cross{stroke:rgba(228, 228, 228, 0.92);}#mermaid-svg-1771545438045-vy5ambzcs svg{font-family:"trebuchet ms",verdana,arial,sans-serif;font-size:16px;}#mermaid-svg-1771545438045-vy5ambzcs .label{font-family:"trebuchet ms",verdana,arial,sans-serif;color:rgba(228, 228, 228, 0.92);}#mermaid-svg-1771545438045-vy5ambzcs .cluster-label text{fill:rgba(228, 228, 228, 0.92);}#mermaid-svg-1771545438045-vy5ambzcs .cluster-label span,#mermaid-svg-1771545438045-vy5ambzcs p{color:rgba(228, 228, 228, 0.92);}#mermaid-svg-1771545438045-vy5ambzcs .label text,#mermaid-svg-1771545438045-vy5ambzcs span,#mermaid-svg-1771545438045-vy5ambzcs p{fill:rgba(228, 228, 228, 0.92);color:rgba(228, 228, 228, 0.92);}#mermaid-svg-1771545438045-vy5ambzcs .node rect,#mermaid-svg-1771545438045-vy5ambzcs .node circle,#mermaid-svg-1771545438045-vy5ambzcs .node ellipse,#mermaid-svg-1771545438045-vy5ambzcs .node polygon,#mermaid-svg-1771545438045-vy5ambzcs .node path{fill:#181818;stroke:#454545;stroke-width:1px;}#mermaid-svg-1771545438045-vy5ambzcs .flowchart-label text{text-anchor:middle;}#mermaid-svg-1771545438045-vy5ambzcs .node .label{text-align:center;}#mermaid-svg-1771545438045-vy5ambzcs .node.clickable{cursor:pointer;}#mermaid-svg-1771545438045-vy5ambzcs .arrowheadPath{fill:#e7e7e7;}#mermaid-svg-1771545438045-vy5ambzcs .edgePath .path{stroke:rgba(228, 228, 228, 0.92);stroke-width:2.0px;}#mermaid-svg-1771545438045-vy5ambzcs .flowchart-link{stroke:rgba(228, 228, 228, 0.92);fill:none;}#mermaid-svg-1771545438045-vy5ambzcs .edgeLabel{background-color:#18181899;text-align:center;}#mermaid-svg-1771545438045-vy5ambzcs .edgeLabel rect{opacity:0.5;background-color:#18181899;fill:#18181899;}#mermaid-svg-1771545438045-vy5ambzcs .labelBkg{background-color:rgba(24, 24, 24, 0.5);}#mermaid-svg-1771545438045-vy5ambzcs .cluster rect{fill:rgba(64, 64, 64, 0.47);stroke:#454545;stroke-width:1px;}#mermaid-svg-1771545438045-vy5ambzcs .cluster text{fill:rgba(228, 228, 228, 0.92);}#mermaid-svg-1771545438045-vy5ambzcs .cluster span,#mermaid-svg-1771545438045-vy5ambzcs p{color:rgba(228, 228, 228, 0.92);}#mermaid-svg-1771545438045-vy5ambzcs div.mermaidTooltip{position:absolute;text-align:center;max-width:200px;padding:2px;font-family:"trebuchet ms",verdana,arial,sans-serif;font-size:12px;background:rgba(64, 64, 64, 0.6);border:1px solid #454545;border-radius:2px;pointer-events:none;z-index:100;}#mermaid-svg-1771545438045-vy5ambzcs .flowchartTitleText{text-anchor:middle;font-size:18px;fill:rgba(228, 228, 228, 0.92);}#mermaid-svg-1771545438045-vy5ambzcs :root{--mermaid-font-family:"trebuchet ms",verdana,arial,sans-serif;}</style><g><marker orient="auto" markerHeight="12" markerWidth="12" markerUnits="userSpaceOnUse" refY="5" refX="6" viewBox="0 0 10 10" class="marker flowchart" id="mermaid-svg-1771545438045-vy5ambzcs_flowchart-pointEnd"><path style="stroke-width: 1; stroke-dasharray: 1, 0;" class="arrowMarkerPath" d="M 0 0 L 10 5 L 0 10 z"/></marker><marker orient="auto" markerHeight="12" markerWidth="12" markerUnits="userSpaceOnUse" refY="5" refX="4.5" viewBox="0 0 10 10" class="marker flowchart" id="mermaid-svg-1771545438045-vy5ambzcs_flowchart-pointStart"><path style="stroke-width: 1; stroke-dasharray: 1, 0;" class="arrowMarkerPath" d="M 0 5 L 10 10 L 10 0 z"/></marker><marker orient="auto" markerHeight="11" markerWidth="11" markerUnits="userSpaceOnUse" refY="5" refX="11" viewBox="0 0 10 10" class="marker flowchart" id="mermaid-svg-1771545438045-vy5ambzcs_flowchart-circleEnd"><circle style="stroke-width: 1; stroke-dasharray: 1, 0;" class="arrowMarkerPath" r="5" cy="5" cx="5"/></marker><marker orient="auto" markerHeight="11" markerWidth="11" markerUnits="userSpaceOnUse" refY="5" refX="-1" viewBox="0 0 10 10" class="marker flowchart" id="mermaid-svg-1771545438045-vy5ambzcs_flowchart-circleStart"><circle style="stroke-width: 1; stroke-dasharray: 1, 0;" class="arrowMarkerPath" r="5" cy="5" cx="5"/></marker><marker orient="auto" markerHeight="11" markerWidth="11" markerUnits="userSpaceOnUse" refY="5.2" refX="12" viewBox="0 0 11 11" class="marker cross flowchart" id="mermaid-svg-1771545438045-vy5ambzcs_flowchart-crossEnd"><path style="stroke-width: 2; stroke-dasharray: 1, 0;" class="arrowMarkerPath" d="M 1,1 l 9,9 M 10,1 l -9,9"/></marker><marker orient="auto" markerHeight="11" markerWidth="11" markerUnits="userSpaceOnUse" refY="5.2" refX="-1" viewBox="0 0 11 11" class="marker cross flowchart" id="mermaid-svg-1771545438045-vy5ambzcs_flowchart-crossStart"><path style="stroke-width: 2; stroke-dasharray: 1, 0;" class="arrowMarkerPath" d="M 1,1 l 9,9 M 10,1 l -9,9"/></marker><g class="root"><g class="clusters"><g id="SALIDA" class="cluster default flowchart-label"><rect height="334" width="412.7734375" y="2074" x="492.228515625" ry="0" rx="0" style=""/><g transform="translate(698.615234375, 2074)" class="cluster-label"><text style=""><tspan class="row" x="0" dy="1em" xml:space="preserve">utils.py — Persistencia</tspan></text></g></g><g id="NORMALIZACION" class="cluster default flowchart-label"><rect height="501" width="457.0546875" y="1523" x="470.087890625" ry="0" rx="0" style=""/><g transform="translate(698.615234375, 1523)" class="cluster-label"><text style=""><tspan class="row" x="0" dy="1em" xml:space="preserve">utils.py — normalize_data</tspan></text></g></g><g id="XML" class="cluster default flowchart-label"><rect height="501" width="512.8515625" y="863.5" x="0" ry="0" rx="0" style=""/><g transform="translate(256.42578125, 863.5)" class="cluster-label"><text style=""><tspan class="row" x="0" dy="1em" xml:space="preserve">xml_skill.py — Extracción XML</tspan></text></g></g><g id="POR_ARCHIVO" class="cluster default flowchart-label"><rect height="922" width="413.32421875" y="551" x="532.8515625" ry="0" rx="0" style=""/><g transform="translate(739.513671875, 551)" class="cluster-label"><text style=""><tspan class="row" x="0" dy="1em" xml:space="preserve">processor.py — Por cada archivo</tspan></text></g></g><g id="ENTRADA" class="cluster default flowchart-label"><rect height="501" width="408.6484375" y="0" x="529.001953125" ry="0" rx="0" style=""/><g transform="translate(733.326171875, 0)" class="cluster-label"><text style=""><tspan class="row" x="0" dy="1em" xml:space="preserve">main.py — Orquestación</tspan></text></g></g></g><g class="edgePaths"><path marker-end="url(#mermaid-svg-1771545438045-vy5ambzcs_flowchart-pointEnd)" style="fill:none;" class="edge-thickness-normal edge-pattern-solid flowchart-link LS-A1 LE-A2" id="L-A1-A2-0" d="M733.326,58.5L733.326,62.667C733.326,66.833,733.326,75.167,733.326,82.617C733.326,90.067,733.326,96.633,733.326,99.917L733.326,103.2"/><path marker-end="url(#mermaid-svg-1771545438045-vy5ambzcs_flowchart-pointEnd)" style="fill:none;" class="edge-thickness-normal edge-pattern-solid flowchart-link LS-A2 LE-A3" id="L-A2-A3-0" d="M733.326,142L733.326,146.167C733.326,150.333,733.326,158.667,733.326,166.117C733.326,173.567,733.326,180.133,733.326,183.417L733.326,186.7"/><path marker-end="url(#mermaid-svg-1771545438045-vy5ambzcs_flowchart-pointEnd)" style="fill:none;" class="edge-thickness-normal edge-pattern-solid flowchart-link LS-A3 LE-A4" id="L-A3-A4-0" d="M733.326,225.5L733.326,229.667C733.326,233.833,733.326,242.167,733.326,249.617C733.326,257.067,733.326,263.633,733.326,266.917L733.326,270.2"/><path marker-end="url(#mermaid-svg-1771545438045-vy5ambzcs_flowchart-pointEnd)" style="fill:none;" class="edge-thickness-normal edge-pattern-solid flowchart-link LS-A4 LE-A5" id="L-A4-A5-0" d="M733.326,309L733.326,313.167C733.326,317.333,733.326,325.667,733.326,333.117C733.326,340.567,733.326,347.133,733.326,350.417L733.326,353.7"/><path marker-end="url(#mermaid-svg-1771545438045-vy5ambzcs_flowchart-pointEnd)" style="fill:none;" class="edge-thickness-normal edge-pattern-solid flowchart-link LS-A5 LE-A6" id="L-A5-A6-0" d="M733.326,392.5L733.326,396.667C733.326,400.833,733.326,409.167,733.326,416.617C733.326,424.067,733.326,430.633,733.326,433.917L733.326,437.2"/><path marker-end="url(#mermaid-svg-1771545438045-vy5ambzcs_flowchart-pointEnd)" style="fill:none;" class="edge-thickness-normal edge-pattern-solid flowchart-link LS-A6 LE-B1" id="L-A6-B1-0" d="M733.326,476L733.326,480.167C733.326,484.333,733.326,492.667,733.326,501C733.326,509.333,733.326,517.667,733.326,526C733.326,534.333,733.326,542.667,733.326,550.117C733.326,557.567,733.326,564.133,733.326,567.417L733.326,570.7"/><path marker-end="url(#mermaid-svg-1771545438045-vy5ambzcs_flowchart-pointEnd)" style="fill:none;" class="edge-thickness-normal edge-pattern-solid flowchart-link LS-B1 LE-B2" id="L-B1-B2-0" d="M733.326,609.5L733.326,613.667C733.326,617.833,733.326,626.167,733.326,633.617C733.326,641.067,733.326,647.633,733.326,650.917L733.326,654.2"/><path marker-end="url(#mermaid-svg-1771545438045-vy5ambzcs_flowchart-pointEnd)" style="fill:none;" class="edge-thickness-normal edge-pattern-solid flowchart-link LS-B2 LE-B3" id="L-B2-B3-0" d="M712.078,693L704.837,698.708C697.596,704.417,683.113,715.833,675.872,726.367C668.631,736.9,668.631,746.55,668.631,751.375L668.631,756.2"/><path marker-end="url(#mermaid-svg-1771545438045-vy5ambzcs_flowchart-pointEnd)" style="fill:none;" class="edge-thickness-normal edge-pattern-solid flowchart-link LS-B2 LE-B4" id="L-B2-B4-0" d="M766.806,693L778.216,698.708C789.626,704.417,812.446,715.833,823.856,730.042C835.266,744.25,835.266,761.25,835.266,778.25C835.266,795.25,835.266,812.25,835.266,826.458C835.266,840.667,835.266,852.083,827.917,861.556C820.568,871.028,805.871,878.556,798.522,882.32L791.173,886.084"/><path marker-end="url(#mermaid-svg-1771545438045-vy5ambzcs_flowchart-pointEnd)" style="fill:none;" class="edge-thickness-normal edge-pattern-solid flowchart-link LS-B3 LE-C1" id="L-B3-C1-0" d="M652.211,795L646.615,800.708C641.019,806.417,629.827,817.833,624.231,829.25C618.635,840.667,618.635,852.083,567.545,863.681C516.454,875.278,414.274,887.056,363.184,892.945L312.093,898.833"/><path marker-end="url(#mermaid-svg-1771545438045-vy5ambzcs_flowchart-pointEnd)" style="fill:none;" class="edge-thickness-normal edge-pattern-solid flowchart-link LS-C1 LE-C2" id="L-C1-C2-0" d="M256.426,922L256.426,926.167C256.426,930.333,256.426,938.667,256.426,946.117C256.426,953.567,256.426,960.133,256.426,963.417L256.426,966.7"/><path marker-end="url(#mermaid-svg-1771545438045-vy5ambzcs_flowchart-pointEnd)" style="fill:none;" class="edge-thickness-normal edge-pattern-solid flowchart-link LS-C2 LE-C3" id="L-C2-C3-0" d="M256.426,1005.5L256.426,1009.667C256.426,1013.833,256.426,1022.167,256.426,1029.617C256.426,1037.067,256.426,1043.633,256.426,1046.917L256.426,1050.2"/><path marker-end="url(#mermaid-svg-1771545438045-vy5ambzcs_flowchart-pointEnd)" style="fill:none;" class="edge-thickness-normal edge-pattern-solid flowchart-link LS-C3 LE-C4" id="L-C3-C4-0" d="M256.426,1089L256.426,1093.167C256.426,1097.333,256.426,1105.667,256.426,1113.117C256.426,1120.567,256.426,1127.133,256.426,1130.417L256.426,1133.7"/><path marker-end="url(#mermaid-svg-1771545438045-vy5ambzcs_flowchart-pointEnd)" style="fill:none;" class="edge-thickness-normal edge-pattern-solid flowchart-link LS-C4 LE-C5" id="L-C4-C5-0" d="M256.426,1172.5L256.426,1176.667C256.426,1180.833,256.426,1189.167,256.426,1196.617C256.426,1204.067,256.426,1210.633,256.426,1213.917L256.426,1217.2"/><path marker-end="url(#mermaid-svg-1771545438045-vy5ambzcs_flowchart-pointEnd)" style="fill:none;" class="edge-thickness-normal edge-pattern-solid flowchart-link LS-C5 LE-C6" id="L-C5-C6-0" d="M256.426,1256L256.426,1260.167C256.426,1264.333,256.426,1272.667,256.426,1280.117C256.426,1287.567,256.426,1294.133,256.426,1297.417L256.426,1300.7"/><path marker-end="url(#mermaid-svg-1771545438045-vy5ambzcs_flowchart-pointEnd)" style="fill:none;" class="edge-thickness-normal edge-pattern-solid flowchart-link LS-C6 LE-B6" id="L-C6-B6-0" d="M256.426,1339.5L256.426,1343.667C256.426,1347.833,256.426,1356.167,311.009,1364.5C365.592,1372.833,474.758,1381.167,539.957,1389.198C605.156,1397.229,626.389,1404.958,637.005,1408.823L647.621,1412.687"/><path marker-end="url(#mermaid-svg-1771545438045-vy5ambzcs_flowchart-pointEnd)" style="fill:none;stroke-width:2px;stroke-dasharray:3;" class="edge-thickness-normal edge-pattern-dotted flowchart-link LS-B3 LE-B4" id="L-B3-B4-0" d="M675.34,795L677.626,800.708C679.913,806.417,684.486,817.833,686.772,829.25C689.059,840.667,689.059,852.083,694.773,861.479C700.487,870.875,711.916,878.251,717.631,881.938L723.345,885.626"/><path marker-end="url(#mermaid-svg-1771545438045-vy5ambzcs_flowchart-pointEnd)" style="fill:none;" class="edge-thickness-normal edge-pattern-solid flowchart-link LS-B4 LE-B5" id="L-B4-B5-0" d="M753.754,922L753.754,926.167C753.754,930.333,753.754,938.667,753.754,946.117C753.754,953.567,753.754,960.133,753.754,963.417L753.754,966.7"/><path marker-end="url(#mermaid-svg-1771545438045-vy5ambzcs_flowchart-pointEnd)" style="fill:none;" class="edge-thickness-normal edge-pattern-solid flowchart-link LS-B5 LE-B6" id="L-B5-B6-0" d="M753.754,1005.5L753.754,1009.667C753.754,1013.833,753.754,1022.167,753.754,1033.292C753.754,1044.417,753.754,1058.333,753.754,1072.25C753.754,1086.167,753.754,1100.083,753.754,1114C753.754,1127.917,753.754,1141.833,753.754,1155.75C753.754,1169.667,753.754,1183.583,753.754,1197.5C753.754,1211.417,753.754,1225.333,753.754,1239.25C753.754,1253.167,753.754,1267.083,753.754,1281C753.754,1294.917,753.754,1308.833,753.754,1322.75C753.754,1336.667,753.754,1350.583,753.754,1361.708C753.754,1372.833,753.754,1381.167,748.955,1388.967C744.157,1396.767,734.559,1404.034,729.761,1407.667L724.962,1411.301"/><path marker-end="url(#mermaid-svg-1771545438045-vy5ambzcs_flowchart-pointEnd)" style="fill:none;" class="edge-thickness-normal edge-pattern-solid flowchart-link LS-B6 LE-D1" id="L-B6-D1-0" d="M698.615,1448L698.615,1452.167C698.615,1456.333,698.615,1464.667,698.615,1473C698.615,1481.333,698.615,1489.667,698.615,1498C698.615,1506.333,698.615,1514.667,698.615,1522.117C698.615,1529.567,698.615,1536.133,698.615,1539.417L698.615,1542.7"/><path marker-end="url(#mermaid-svg-1771545438045-vy5ambzcs_flowchart-pointEnd)" style="fill:none;" class="edge-thickness-normal edge-pattern-solid flowchart-link LS-D1 LE-D2" id="L-D1-D2-0" d="M698.615,1581.5L698.615,1585.667C698.615,1589.833,698.615,1598.167,698.615,1605.617C698.615,1613.067,698.615,1619.633,698.615,1622.917L698.615,1626.2"/><path marker-end="url(#mermaid-svg-1771545438045-vy5ambzcs_flowchart-pointEnd)" style="fill:none;" class="edge-thickness-normal edge-pattern-solid flowchart-link LS-D2 LE-D3" id="L-D2-D3-0" d="M698.615,1665L698.615,1669.167C698.615,1673.333,698.615,1681.667,698.615,1689.117C698.615,1696.567,698.615,1703.133,698.615,1706.417L698.615,1709.7"/><path marker-end="url(#mermaid-svg-1771545438045-vy5ambzcs_flowchart-pointEnd)" style="fill:none;" class="edge-thickness-normal edge-pattern-solid flowchart-link LS-D3 LE-D4" id="L-D3-D4-0" d="M698.615,1748.5L698.615,1752.667C698.615,1756.833,698.615,1765.167,698.615,1772.617C698.615,1780.067,698.615,1786.633,698.615,1789.917L698.615,1793.2"/><path marker-end="url(#mermaid-svg-1771545438045-vy5ambzcs_flowchart-pointEnd)" style="fill:none;" class="edge-thickness-normal edge-pattern-solid flowchart-link LS-D4 LE-D5" id="L-D4-D5-0" d="M698.615,1832L698.615,1836.167C698.615,1840.333,698.615,1848.667,698.615,1856.117C698.615,1863.567,698.615,1870.133,698.615,1873.417L698.615,1876.7"/><path marker-end="url(#mermaid-svg-1771545438045-vy5ambzcs_flowchart-pointEnd)" style="fill:none;" class="edge-thickness-normal edge-pattern-solid flowchart-link LS-D5 LE-D6" id="L-D5-D6-0" d="M698.615,1915.5L698.615,1919.667C698.615,1923.833,698.615,1932.167,698.615,1939.617C698.615,1947.067,698.615,1953.633,698.615,1956.917L698.615,1960.2"/><path marker-end="url(#mermaid-svg-1771545438045-vy5ambzcs_flowchart-pointEnd)" style="fill:none;" class="edge-thickness-normal edge-pattern-solid flowchart-link LS-D6 LE-E1" id="L-D6-E1-0" d="M698.615,1999L698.615,2003.167C698.615,2007.333,698.615,2015.667,698.615,2024C698.615,2032.333,698.615,2040.667,698.615,2049C698.615,2057.333,698.615,2065.667,698.615,2073.117C698.615,2080.567,698.615,2087.133,698.615,2090.417L698.615,2093.7"/><path marker-end="url(#mermaid-svg-1771545438045-vy5ambzcs_flowchart-pointEnd)" style="fill:none;" class="edge-thickness-normal edge-pattern-solid flowchart-link LS-E1 LE-E2" id="L-E1-E2-0" d="M698.615,2132.5L698.615,2136.667C698.615,2140.833,698.615,2149.167,698.615,2156.617C698.615,2164.067,698.615,2170.633,698.615,2173.917L698.615,2177.2"/><path marker-end="url(#mermaid-svg-1771545438045-vy5ambzcs_flowchart-pointEnd)" style="fill:none;" class="edge-thickness-normal edge-pattern-solid flowchart-link LS-E2 LE-E3" id="L-E2-E3-0" d="M698.615,2216L698.615,2220.167C698.615,2224.333,698.615,2232.667,698.615,2240.117C698.615,2247.567,698.615,2254.133,698.615,2257.417L698.615,2260.7"/><path marker-end="url(#mermaid-svg-1771545438045-vy5ambzcs_flowchart-pointEnd)" style="fill:none;" class="edge-thickness-normal edge-pattern-solid flowchart-link LS-E3 LE-E4" id="L-E3-E4-0" d="M698.615,2299.5L698.615,2303.667C698.615,2307.833,698.615,2316.167,698.615,2323.617C698.615,2331.067,698.615,2337.633,698.615,2340.917L698.615,2344.2"/></g><g class="edgeLabels"><g class="edgeLabel"><g transform="translate(0, 0)" class="label"><rect height="0" width="0" ry="0" rx="0"/><text style=""><tspan class="row" x="0" dy="1em" xml:space="preserve"/></text></g></g><g class="edgeLabel"><g transform="translate(0, 0)" class="label"><rect height="0" width="0" ry="0" rx="0"/><text style=""><tspan class="row" x="0" dy="1em" xml:space="preserve"/></text></g></g><g class="edgeLabel"><g transform="translate(0, 0)" class="label"><rect height="0" width="0" ry="0" rx="0"/><text style=""><tspan class="row" x="0" dy="1em" xml:space="preserve"/></text></g></g><g class="edgeLabel"><g transform="translate(0, 0)" class="label"><rect height="0" width="0" ry="0" rx="0"/><text style=""><tspan class="row" x="0" dy="1em" xml:space="preserve"/></text></g></g><g class="edgeLabel"><g transform="translate(0, 0)" class="label"><rect height="0" width="0" ry="0" rx="0"/><text style=""><tspan class="row" x="0" dy="1em" xml:space="preserve"/></text></g></g><g class="edgeLabel"><g transform="translate(0, 0)" class="label"><rect height="0" width="0" ry="0" rx="0"/><text style=""><tspan class="row" x="0" dy="1em" xml:space="preserve"/></text></g></g><g class="edgeLabel"><g transform="translate(0, 0)" class="label"><rect height="0" width="0" ry="0" rx="0"/><text style=""><tspan class="row" x="0" dy="1em" xml:space="preserve"/></text></g></g><g transform="translate(668.630859375, 727.25)" class="edgeLabel"><g transform="translate(-6.12890625, -9.25)" class="label"><rect height="18.500118255615234" width="12.257891654968262" ry="0" rx="0"/><text style=""><tspan class="row" x="0" dy="1em" xml:space="preserve">Sí</tspan></text></g></g><g transform="translate(835.265625, 778.25)" class="edgeLabel"><g transform="translate(-9.3984375, -9.25)" class="label"><rect height="18.500118255615234" width="18.796995162963867" ry="0" rx="0"/><text style=""><tspan class="row" x="0" dy="1em" xml:space="preserve">No</tspan></text></g></g><g class="edgeLabel"><g transform="translate(0, 0)" class="label"><rect height="0" width="0" ry="0" rx="0"/><text style=""><tspan class="row" x="0" dy="1em" xml:space="preserve"/></text></g></g><g class="edgeLabel"><g transform="translate(0, 0)" class="label"><rect height="0" width="0" ry="0" rx="0"/><text style=""><tspan class="row" x="0" dy="1em" xml:space="preserve"/></text></g></g><g class="edgeLabel"><g transform="translate(0, 0)" class="label"><rect height="0" width="0" ry="0" rx="0"/><text style=""><tspan class="row" x="0" dy="1em" xml:space="preserve"/></text></g></g><g class="edgeLabel"><g transform="translate(0, 0)" class="label"><rect height="0" width="0" ry="0" rx="0"/><text style=""><tspan class="row" x="0" dy="1em" xml:space="preserve"/></text></g></g><g class="edgeLabel"><g transform="translate(0, 0)" class="label"><rect height="0" width="0" ry="0" rx="0"/><text style=""><tspan class="row" x="0" dy="1em" xml:space="preserve"/></text></g></g><g class="edgeLabel"><g transform="translate(0, 0)" class="label"><rect height="0" width="0" ry="0" rx="0"/><text style=""><tspan class="row" x="0" dy="1em" xml:space="preserve"/></text></g></g><g class="edgeLabel"><g transform="translate(0, 0)" class="label"><rect height="0" width="0" ry="0" rx="0"/><text style=""><tspan class="row" x="0" dy="1em" xml:space="preserve"/></text></g></g><g transform="translate(689.05859375, 829.25)" class="edgeLabel"><g transform="translate(-17.90625, -9.25)" class="label"><rect height="18.500118255615234" width="35.80491638183594" ry="0" rx="0"/><text style=""><tspan class="row" x="0" dy="1em" xml:space="preserve">Error</tspan></text></g></g><g class="edgeLabel"><g transform="translate(0, 0)" class="label"><rect height="0" width="0" ry="0" rx="0"/><text style=""><tspan class="row" x="0" dy="1em" xml:space="preserve"/></text></g></g><g class="edgeLabel"><g transform="translate(0, 0)" class="label"><rect height="0" width="0" ry="0" rx="0"/><text style=""><tspan class="row" x="0" dy="1em" xml:space="preserve"/></text></g></g><g class="edgeLabel"><g transform="translate(0, 0)" class="label"><rect height="0" width="0" ry="0" rx="0"/><text style=""><tspan class="row" x="0" dy="1em" xml:space="preserve"/></text></g></g><g class="edgeLabel"><g transform="translate(0, 0)" class="label"><rect height="0" width="0" ry="0" rx="0"/><text style=""><tspan class="row" x="0" dy="1em" xml:space="preserve"/></text></g></g><g class="edgeLabel"><g transform="translate(0, 0)" class="label"><rect height="0" width="0" ry="0" rx="0"/><text style=""><tspan class="row" x="0" dy="1em" xml:space="preserve"/></text></g></g><g class="edgeLabel"><g transform="translate(0, 0)" class="label"><rect height="0" width="0" ry="0" rx="0"/><text style=""><tspan class="row" x="0" dy="1em" xml:space="preserve"/></text></g></g><g class="edgeLabel"><g transform="translate(0, 0)" class="label"><rect height="0" width="0" ry="0" rx="0"/><text style=""><tspan class="row" x="0" dy="1em" xml:space="preserve"/></text></g></g><g class="edgeLabel"><g transform="translate(0, 0)" class="label"><rect height="0" width="0" ry="0" rx="0"/><text style=""><tspan class="row" x="0" dy="1em" xml:space="preserve"/></text></g></g><g class="edgeLabel"><g transform="translate(0, 0)" class="label"><rect height="0" width="0" ry="0" rx="0"/><text style=""><tspan class="row" x="0" dy="1em" xml:space="preserve"/></text></g></g><g class="edgeLabel"><g transform="translate(0, 0)" class="label"><rect height="0" width="0" ry="0" rx="0"/><text style=""><tspan class="row" x="0" dy="1em" xml:space="preserve"/></text></g></g><g class="edgeLabel"><g transform="translate(0, 0)" class="label"><rect height="0" width="0" ry="0" rx="0"/><text style=""><tspan class="row" x="0" dy="1em" xml:space="preserve"/></text></g></g><g class="edgeLabel"><g transform="translate(0, 0)" class="label"><rect height="0" width="0" ry="0" rx="0"/><text style=""><tspan class="row" x="0" dy="1em" xml:space="preserve"/></text></g></g></g><g class="nodes"><g transform="translate(698.615234375, 2115.75)" id="flowchart-E1-24" class="node default default flowchart-label"><rect height="33.5" width="342.7734375" y="-16.75" x="-171.38671875" ry="0" rx="0" style="" class="basic label-container"/><g transform="translate(0, -9.25)" style="" class="label"><rect/><text style=""><tspan class="row" x="0" dy="1em" xml:space="preserve">save_to_excel: DataFrame con columnas fijas</tspan></text></g></g><g transform="translate(698.615234375, 2199.25)" id="flowchart-E2-25" class="node default default flowchart-label"><rect height="33.5" width="112.375" y="-16.75" x="-56.1875" ry="0" rx="0" style="" class="basic label-container"/><g transform="translate(0, -9.25)" style="" class="label"><rect/><text style=""><tspan class="row" x="0" dy="1em" xml:space="preserve">¿Excel existe?</tspan></text></g></g><g transform="translate(698.615234375, 2282.75)" id="flowchart-E3-26" class="node default default flowchart-label"><rect height="33.5" width="241.71875" y="-16.75" x="-120.859375" ry="0" rx="0" style="" class="basic label-container"/><g transform="translate(0, -9.25)" style="" class="label"><rect/><text style=""><tspan class="row" x="0" dy="1em" xml:space="preserve">Crear nuevo / Append openpyxl</tspan></text></g></g><g transform="translate(698.615234375, 2366.25)" id="flowchart-E4-27" class="node default default flowchart-label"><rect height="33.5" width="312.28125" y="-16.75" x="-156.140625" ry="0" rx="0" style="" class="basic label-container"/><g transform="translate(0, -9.25)" style="" class="label"><rect/><text style=""><tspan class="row" x="0" dy="1em" xml:space="preserve">Guardar cada 5 registros + guardado final</tspan></text></g></g><g transform="translate(698.615234375, 1564.75)" id="flowchart-D1-18" class="node default default flowchart-label"><rect height="33.5" width="237.859375" y="-16.75" x="-118.9296875" ry="0" rx="0" style="" class="basic label-container"/><g transform="translate(0, -9.25)" style="" class="label"><rect/><text style=""><tspan class="row" x="0" dy="1em" xml:space="preserve">fecha_emision → fecha si falta</tspan></text></g></g><g transform="translate(698.615234375, 1648.25)" id="flowchart-D2-19" class="node default default flowchart-label"><rect height="33.5" width="369.7578125" y="-16.75" x="-184.87890625" ry="0" rx="0" style="" class="basic label-container"/><g transform="translate(0, -9.25)" style="" class="label"><rect/><text style=""><tspan class="row" x="0" dy="1em" xml:space="preserve">clean_colombian_number: base, impuestos, total</tspan></text></g></g><g transform="translate(698.615234375, 1731.75)" id="flowchart-D3-20" class="node default default flowchart-label"><rect height="33.5" width="299.1640625" y="-16.75" x="-149.58203125" ry="0" rx="0" style="" class="basic label-container"/><g transform="translate(0, -9.25)" style="" class="label"><rect/><text style=""><tspan class="row" x="0" dy="1em" xml:space="preserve">correct_suspicious_low_total para total</tspan></text></g></g><g transform="translate(698.615234375, 1815.25)" id="flowchart-D4-21" class="node default default flowchart-label"><rect height="33.5" width="364.7734375" y="-16.75" x="-182.38671875" ry="0" rx="0" style="" class="basic label-container"/><g transform="translate(0, -9.25)" style="" class="label"><rect/><text style=""><tspan class="row" x="0" dy="1em" xml:space="preserve">format_date_colombian: fechas → DD/MM/YYYY</tspan></text></g></g><g transform="translate(698.615234375, 1898.75)" id="flowchart-D5-22" class="node default default flowchart-label"><rect height="33.5" width="256.5234375" y="-16.75" x="-128.26171875" ry="0" rx="0" style="" class="basic label-container"/><g transform="translate(0, -9.25)" style="" class="label"><rect/><text style=""><tspan class="row" x="0" dy="1em" xml:space="preserve">clean_nit: quitar puntos/espacios</tspan></text></g></g><g transform="translate(698.615234375, 1982.25)" id="flowchart-D6-23" class="node default default flowchart-label"><rect height="33.5" width="387.0546875" y="-16.75" x="-193.52734375" ry="0" rx="0" style="" class="basic label-container"/><g transform="translate(0, -9.25)" style="" class="label"><rect/><text style=""><tspan class="row" x="0" dy="1em" xml:space="preserve">Separar NIT número y DV; calcular nit_dv_calculado</tspan></text></g></g><g transform="translate(256.42578125, 905.25)" id="flowchart-C1-12" class="node default default flowchart-label"><rect height="33.5" width="100.8046875" y="-16.75" x="-50.40234375" ry="0" rx="0" style="" class="basic label-container"/><g transform="translate(0, -9.25)" style="" class="label"><rect/><text style=""><tspan class="row" x="0" dy="1em" xml:space="preserve">Parsear XML</tspan></text></g></g><g transform="translate(256.42578125, 988.75)" id="flowchart-C2-13" class="node default default flowchart-label"><rect height="33.5" width="150.984375" y="-16.75" x="-75.4921875" ry="0" rx="0" style="" class="basic label-container"/><g transform="translate(0, -9.25)" style="" class="label"><rect/><text style=""><tspan class="row" x="0" dy="1em" xml:space="preserve">Quitar namespaces</tspan></text></g></g><g transform="translate(256.42578125, 1072.25)" id="flowchart-C3-14" class="node default default flowchart-label"><rect height="33.5" width="232.796875" y="-16.75" x="-116.3984375" ry="0" rx="0" style="" class="basic label-container"/><g transform="translate(0, -9.25)" style="" class="label"><rect/><text style=""><tspan class="row" x="0" dy="1em" xml:space="preserve">¿AttachedDocument o Invoice?</tspan></text></g></g><g transform="translate(256.42578125, 1155.75)" id="flowchart-C4-15" class="node default default flowchart-label"><rect height="33.5" width="429.015625" y="-16.75" x="-214.5078125" ry="0" rx="0" style="" class="basic label-container"/><g transform="translate(0, -9.25)" style="" class="label"><rect/><text style=""><tspan class="row" x="0" dy="1em" xml:space="preserve">Si AttachedDocument: extraer XML interno de Description</tspan></text></g></g><g transform="translate(256.42578125, 1239.25)" id="flowchart-C5-16" class="node default default flowchart-label"><rect height="33.5" width="442.8515625" y="-16.75" x="-221.42578125" ry="0" rx="0" style="" class="basic label-container"/><g transform="translate(0, -9.25)" style="" class="label"><rect/><text style=""><tspan class="row" x="0" dy="1em" xml:space="preserve">_parse_invoice: proveedor, NIT, fechas, totales, CUFE/UUID</tspan></text></g></g><g transform="translate(256.42578125, 1322.75)" id="flowchart-C6-17" class="node default default flowchart-label"><rect height="33.5" width="329.515625" y="-16.75" x="-164.7578125" ry="0" rx="0" style="" class="basic label-container"/><g transform="translate(0, -9.25)" style="" class="label"><rect/><text style=""><tspan class="row" x="0" dy="1em" xml:space="preserve">Devolver dict con fecha_emision, cufe, etc.</tspan></text></g></g><g transform="translate(733.326171875, 592.75)" id="flowchart-B1-6" class="node default default flowchart-label"><rect height="33.5" width="233.1328125" y="-16.75" x="-116.56640625" ry="0" rx="0" style="" class="basic label-container"/><g transform="translate(0, -9.25)" style="" class="label"><rect/><text style=""><tspan class="row" x="0" dy="1em" xml:space="preserve">process_file: ruta PDF/imagen</tspan></text></g></g><g transform="translate(733.326171875, 676.25)" id="flowchart-B2-7" class="node default default flowchart-label"><rect height="33.5" width="216.453125" y="-16.75" x="-108.2265625" ry="0" rx="0" style="" class="basic label-container"/><g transform="translate(0, -9.25)" style="" class="label"><rect/><text style=""><tspan class="row" x="0" dy="1em" xml:space="preserve">¿Existe .xml mismo nombre?</tspan></text></g></g><g transform="translate(668.630859375, 778.25)" id="flowchart-B3-8" class="node default default flowchart-label"><rect height="33.5" width="169.984375" y="-16.75" x="-84.9921875" ry="0" rx="0" style="" class="basic label-container"/><g transform="translate(0, -9.25)" style="" class="label"><rect/><text style=""><tspan class="row" x="0" dy="1em" xml:space="preserve">XmlSkill.extract_data</tspan></text></g></g><g transform="translate(753.75390625, 905.25)" id="flowchart-B4-9" class="node default default flowchart-label"><rect height="33.5" width="185.1171875" y="-16.75" x="-92.55859375" ry="0" rx="0" style="" class="basic label-container"/><g transform="translate(0, -9.25)" style="" class="label"><rect/><text style=""><tspan class="row" x="0" dy="1em" xml:space="preserve">VisionSkill.extract_data</tspan></text></g></g><g transform="translate(753.75390625, 988.75)" id="flowchart-B5-10" class="node default default flowchart-label"><rect height="33.5" width="314.84375" y="-16.75" x="-157.421875" ry="0" rx="0" style="" class="basic label-container"/><g transform="translate(0, -9.25)" style="" class="label"><rect/><text style=""><tspan class="row" x="0" dy="1em" xml:space="preserve">Mapear campos Vision → estructura Excel</tspan></text></g></g><g transform="translate(698.615234375, 1431.25)" id="flowchart-B6-11" class="node default default flowchart-label"><rect height="33.5" width="94.2890625" y="-16.75" x="-47.14453125" ry="0" rx="0" style="" class="basic label-container"/><g transform="translate(0, -9.25)" style="" class="label"><rect/><text style=""><tspan class="row" x="0" dy="1em" xml:space="preserve">_normalize</tspan></text></g></g><g transform="translate(733.326171875, 41.75)" id="flowchart-A1-0" class="node default default flowchart-label"><rect height="33.5" width="210.2109375" y="-16.75" x="-105.10546875" ry="0" rx="0" style="" class="basic label-container"/><g transform="translate(0, -9.25)" style="" class="label"><rect/><text style=""><tspan class="row" x="0" dy="1em" xml:space="preserve">Inicio: argumentos, API key</tspan></text></g></g><g transform="translate(733.326171875, 125.25)" id="flowchart-A2-1" class="node default default flowchart-label"><rect height="33.5" width="199.8125" y="-16.75" x="-99.90625" ry="0" rx="0" style="" class="basic label-container"/><g transform="translate(0, -9.25)" style="" class="label"><rect/><text style=""><tspan class="row" x="0" dy="1em" xml:space="preserve">Crear directorio input_dir</tspan></text></g></g><g transform="translate(733.326171875, 208.75)" id="flowchart-A3-2" class="node default default flowchart-label"><rect height="33.5" width="253.6640625" y="-16.75" x="-126.83203125" ry="0" rx="0" style="" class="basic label-container"/><g transform="translate(0, -9.25)" style="" class="label"><rect/><text style=""><tspan class="row" x="0" dy="1em" xml:space="preserve">Listar PDF/PNG/JPG en input_dir</tspan></text></g></g><g transform="translate(733.326171875, 292.25)" id="flowchart-A4-3" class="node default default flowchart-label"><rect height="33.5" width="338.6484375" y="-16.75" x="-169.32421875" ry="0" rx="0" style="" class="basic label-container"/><g transform="translate(0, -9.25)" style="" class="label"><rect/><text style=""><tspan class="row" x="0" dy="1em" xml:space="preserve">Leer Excel existente → archivos ya EXITOSOS</tspan></text></g></g><g transform="translate(733.326171875, 375.75)" id="flowchart-A5-4" class="node default default flowchart-label"><rect height="33.5" width="268.6953125" y="-16.75" x="-134.34765625" ry="0" rx="0" style="" class="basic label-container"/><g transform="translate(0, -9.25)" style="" class="label"><rect/><text style=""><tspan class="row" x="0" dy="1em" xml:space="preserve">Filtrar: solo archivos no procesados</tspan></text></g></g><g transform="translate(733.326171875, 459.25)" id="flowchart-A6-5" class="node default default flowchart-label"><rect height="33.5" width="287.9453125" y="-16.75" x="-143.97265625" ry="0" rx="0" style="" class="basic label-container"/><g transform="translate(0, -9.25)" style="" class="label"><rect/><text style=""><tspan class="row" x="0" dy="1em" xml:space="preserve">InvoiceProcessor + asyncio Semaphore</tspan></text></g></g></g></g></g></svg>